PathFileType	4	(X/Y/Z)	Patient5_TMGait_0pt45_1_left_02.trc.trc
DataRate	CameraRate	NumFrames	NumMarkers	Units	OrigDataRate	OrigDataStartFrame	OrigNumFrames
59.322033898305	59.322033898305	4	32	mm	59.322033898305	1	       141
Frame#	Time	R.ASIS			L.ASIS			Chest			R.Shoulder			Neck			L.Shoulder			L.Elbow			L.Wrist			R.Elbow			R.Wrist			L.Thigh.Superior			L.Thigh.Lateral			L.Thigh.Inferior			L.Patella			L.Shank.Superior			L.Shank.Lateral			L.Shank.Inferior			L.Heel			L.Midfoot.Lateral			L.Midfoot.Superior			L.Toe			R.Thigh.Superior			R.Thigh.Lateral			R.Thigh.Inferior			R.Patella			R.Shank.Superior			R.Shank.Lateral			R.Shank.Inferior			R.Heel			R.Midfoot.Lateral			R.Midfoot.Superior			R.Toe			
		X1	Y1	Z1	X2	Y2	Z2	X3	Y3	Z3	X4	Y4	Z4	X5	Y5	Z5	X6	Y6	Z6	X7	Y7	Z7	X8	Y8	Z8	X9	Y9	Z9	X10	Y10	Z10	X11	Y11	Z11	X12	Y12	Z12	X13	Y13	Z13	X14	Y14	Z14	X15	Y15	Z15	X16	Y16	Z16	X17	Y17	Z17	X18	Y18	Z18	X19	Y19	Z19	X20	Y20	Z20	X21	Y21	Z21	X22	Y22	Z22	X23	Y23	Z23	X24	Y24	Z24	X25	Y25	Z25	X26	Y26	Z26	X27	Y27	Z27	X28	Y28	Z28	X29	Y29	Z29	X30	Y30	Z30	X31	Y31	Z31	X32	Y32	Z32	

1	1.700000000000	949.826234653431	967.914784059816	601.546374890122	910.286519306632	956.035673649737	367.904892472646	991.442947085206	1426.391304783258	521.180250120110	913.346391722419	1481.164829657210	701.747361881225	864.040503415181	1549.278201501847	525.429942800436	907.258212863219	1502.754666379333	335.779922861709	793.303068841914	1198.363051738144	200.913260533520	879.969055858569	925.762711027922	170.810117521631	867.500176804293	1153.015133558148	839.405794946328	1077.171676717093	975.956831252495	745.750532673772	954.650649272776	746.902507804759	314.379679134638	885.625366103953	674.007511630278	274.791671006077	977.722666914626	618.658361327566	310.239685936728	973.176906452730	470.954032815816	295.958565519765	870.867443908283	397.586635395642	329.928845338960	766.424823127727	394.328604787868	263.119540079527	765.950546749960	329.844818280314	350.029991706584	517.151233488948	269.308829202678	362.903434620527	545.099996093545	174.180867717924	313.218076295740	657.031936064873	138.740888205572	349.099563295300	687.235123244586	35.942629073828	367.691681355950	976.015725300692	742.054189083569	613.612325543848	899.785261141279	658.081970350752	671.233787202102	974.349981017340	614.381057459182	586.203569994075	982.462245163471	517.056193737920	609.331316029208	943.790711238169	418.679315464446	570.406394102293	885.599672638480	341.591622867890	654.716673220523	935.373553741712	279.435363782047	562.973711765420	823.306575359435	52.966216417522	525.097829350619	904.237019016329	23.704169738701	595.480115680993	1009.289419370401	88.128672313281	567.232542945086	1113.153658891850	43.874572448138	563.838210188311	
2	1.716857142857	950.474407647866	968.522246881003	604.871708935547	909.445075622116	956.854258295478	370.545552490247	992.070539639967	1426.587740999457	522.458290213610	915.224396005333	1480.693707460581	703.722723152701	865.151297507637	1549.499567733606	528.053276291389	906.362718447032	1503.996640859452	338.008066057622	790.950060326072	1198.691456045180	205.743032561502	878.853389068793	926.467716806661	174.945049192421	872.570011646737	1152.494521046033	841.962795316839	1082.891048367671	974.909577386611	751.248567724532	959.922564126396	752.727488633813	317.021386121540	894.268258657993	677.684456069062	276.546012548270	988.725039908461	626.207543877178	312.084392838098	989.468196939072	477.618548949340	296.784552432447	886.581639398940	402.960709367064	329.853906384978	782.879538945498	400.229475390833	262.311442438885	781.347525772341	335.818735957007	349.416190868946	531.449999474629	275.387098169018	361.607742613908	560.610222693860	181.500784058295	310.264462220466	672.514756037878	145.984354227480	346.458795958449	703.055491049168	41.910082121594	363.099264313347	971.977983087727	740.583257803724	615.283559669040	893.640259591536	658.104191760712	672.825679453187	966.370028400546	613.003711420960	587.177180277543	972.760472856934	516.093249832066	609.884563916778	933.404672542019	419.069652378445	571.201731134178	876.342602262728	342.135495845977	655.667031632858	926.179869188077	280.136919481363	563.484146577279	815.147422788883	53.022668645385	525.147233118858	896.130154461935	23.933889066307	595.673524933616	1001.090133428589	88.195085750740	567.258696404138	1104.972105892184	43.979946693737	563.853268778492	
3	1.733714285714	951.003817795326	969.068295158883	608.091857820066	908.608787946060	957.737741994469	373.105450897991	992.703225098216	1426.837224554318	523.596642601836	917.155283729353	1480.325509549584	705.553874972463	866.235887035224	1549.772555608260	530.524678967159	905.470417808182	1505.232350232825	340.104244563580	788.685185784572	1199.051404371312	210.347667496288	877.963974148401	927.225492378794	179.017005111530	877.455327665122	1152.099341967785	844.341857880019	1088.338384155503	973.877354849625	756.538214776758	965.022013027904	758.547157208531	319.869736500699	902.708132566706	681.466737251978	278.444293680942	999.345574970259	633.752688845015	314.221729873119	1005.297876592438	484.358176486924	297.875035079554	901.991981180379	408.258636553732	329.998016317731	798.970934977967	405.867625237241	261.795787458078	796.572710947758	341.394484862373	348.959175161103	545.678850903296	280.038403027453	360.516654056638	576.538419203074	187.766974623499	307.317231289475	688.605871412057	152.699349873326	343.736813250752	720.155269659187	47.704775107826	358.157082042207	967.974337324974	739.205879675506	616.865087418259	887.719342613300	658.122728133841	674.385332095311	958.717470971422	611.709071999912	588.165135346617	963.505581153233	515.177040522701	610.482682594750	923.453980570192	419.422450485390	572.007983039916	867.374482205346	342.634214014172	656.592440754335	917.261943614491	280.770335298461	564.009432962709	807.081395742760	53.094891262451	525.220218590956	888.111591315185	24.133811215285	595.850398555816	992.987660959001	88.268709331525	567.307618800245	1096.883838691147	44.080594252416	563.870062711466	
4	1.750571428571	951.288879304268	969.480969726596	611.092738798361	907.764393364425	958.706605881824	375.513470436336	993.355789545951	1427.139004515083	524.506054122842	919.179607324317	1480.130682518716	707.131308545626	867.286378458450	1550.113336676961	532.714899229952	904.625092294323	1506.400161463801	341.959372032148	786.595484886183	1199.434080827060	214.512684508003	877.542470908362	928.071394982545	182.970282169801	881.992832064336	1151.941638984055	846.457596515832	1093.257355201236	972.905591180992	761.412203175160	969.753925395198	764.307101705794	323.051180931521	910.727778106572	685.407759082667	280.556704386547	1009.204123978613	641.237804107036	316.858881294910	1020.235824148435	491.221702383567	299.428648333571	916.884714376816	413.375867194227	330.521613435512	814.428079690198	410.901653634439	261.805407340713	811.612772124163	346.123882039699	348.785310283386	560.080401283729	281.860032597532	359.815333875470	593.434126893252	191.916159742308	304.428053828029	705.976292956132	158.297514585105	340.887328627873	739.715795111377	53.084979461432	352.620378276333	964.063735146128	737.991840129974	618.301848191008	882.210533746598	658.130259976019	675.878366715216	951.679204294234	610.556008336572	589.176972184904	955.069941112782	514.339455316202	611.162825287953	914.293385570373	419.698984845314	572.824696948512	858.934952294827	343.051720338510	657.468584308810	908.827425151836	281.273513754503	564.553351860100	799.155449830965	53.183877725671	525.323780736883	880.223815414216	24.285907961476	595.998610758079	985.031712077018	88.350255792946	567.391692387396	1088.938938044066	44.171838879748	563.886597678697	
